<?xml version="1.0" encoding="utf-8"?>
<!-- Generator: Adobe Illustrator 24.2.3, SVG Export Plug-In . SVG Version: 6.00 Build 0)  -->
<svg version="1.1" id="Capa_1" xmlns="http://www.w3.org/2000/svg" xmlns:xlink="http://www.w3.org/1999/xlink" x="0px" y="0px"
	 viewBox="0 0 512 512" style="enable-background:new 0 0 512 512;" xml:space="preserve">
<g>
	<g>
		<path d="M5,161l239.1,239.1c3.4,3.4,7.3,5.1,11.8,5.1c4.5,0,8.4-1.7,11.8-5.1L506.8,161c3.4-3.4,5.1-7.4,5.1-11.8
			s-1.7-8.4-5.1-11.8l-25.6-25.6c-3.4-3.4-7.4-5.1-11.8-5.1c-4.4,0-8.4,1.7-11.8,5.1L255.9,313.4L54.3,111.8
			c-3.4-3.4-7.4-5.1-11.8-5.1c-4.5,0-8.4,1.7-11.8,5.1L5.1,137.5c-3.4,3.4-5.1,7.4-5.1,11.8C-0.1,153.6,1.6,157.6,5,161z"/>
	</g>
</g>
</svg>
