<?xml version="1.0" encoding="utf-8"?>
<!-- Generator: Adobe Illustrator 24.2.3, SVG Export Plug-In . SVG Version: 6.00 Build 0)  -->
<svg version="1.1" id="Capa_1" xmlns="http://www.w3.org/2000/svg" xmlns:xlink="http://www.w3.org/1999/xlink" x="0px" y="0px"
	 viewBox="0 0 512 512" style="enable-background:new 0 0 512 512;" xml:space="preserve">
<g>
	<g>
		<path d="M188.1,409.1c11.5,0,20.9-9.4,20.9-20.9V21c0-8-4.5-15.3-11.5-18.8s-15.6-2.8-21.9,2.1L39.3,106.5
			c-9.4,7-11.1,19.8-4.2,29.2c7,9.4,19.8,11.1,29.2,4.2l102.9-77.2v325.5C167.3,399.7,176.7,409.1,188.1,409.1z"/>
		<path d="M323.8,106.5c-11.5,0-20.9,9.4-20.9,20.9v363.8c0,8,4.5,15,11.5,18.8c3.1,1.4,6.3,2.1,9.4,2.1c4.5,0,8.7-1.4,12.5-4.2
			l136.3-100.5c9.4-7,11.1-19.8,4.5-29.2c-7-9.4-19.8-11.1-29.2-4.5l-103.3,76.2V127.4C344.6,115.9,335.3,106.5,323.8,106.5z"/>
	</g>
</g>
</svg>
